<svg version="1.1" id="Layer_1" xmlns="http://www.w3.org/2000/svg" xmlns:xlink="http://www.w3.org/1999/xlink" x="0px" y="0px"
	 width="100%" viewBox="0 0 1080 1080" enable-background="new 0 0 1080 1080" xml:space="preserve">
<path fill="#FFFFFF" opacity="1.000000" stroke="none" 
	d="
M977.000000,1081.000000 
	C651.333313,1081.000000 326.166656,1081.000000 1.000000,1081.000000 
	C1.000000,721.000000 1.000000,361.000000 1.000000,1.000000 
	C361.000000,1.000000 721.000000,1.000000 1081.000000,1.000000 
	C1081.000000,361.000000 1081.000000,721.000000 1081.000000,1081.000000 
	C1046.500000,1081.000000 1012.000000,1081.000000 977.000000,1081.000000 
M152.513260,580.895874 
	C153.871979,566.907593 151.569824,552.226929 128.176376,543.267456 
	C137.752304,533.728027 139.969772,530.377502 141.028625,523.848267 
	C144.539093,502.201721 132.863525,486.162262 111.055443,482.989136 
	C105.968788,482.249023 100.775909,482.004913 95.628304,481.961761 
	C80.191109,481.832306 64.752129,481.915161 49.210754,481.915161 
	C49.210754,525.819092 49.210754,569.233765 49.210754,612.771240 
	C71.372955,612.771240 93.321053,612.857178 115.267067,612.681885 
	C118.702263,612.654480 122.240669,611.785645 125.538574,610.713196 
	C139.809616,606.071960 150.105530,597.614319 152.513260,580.895874 
M250.493561,593.723938 
	C248.858948,593.282104 247.226486,592.465820 245.589371,592.456360 
	C229.152756,592.361206 212.715393,592.398438 196.189072,592.398438 
	C196.189072,580.250671 196.189072,568.512268 196.189072,556.489197 
	C214.250916,556.489197 232.023880,556.489197 249.887604,556.489197 
	C249.887604,549.832886 249.887604,543.469604 249.887604,536.785522 
	C231.786865,536.785522 214.020340,536.785522 196.259232,536.785522 
	C196.259232,525.251343 196.259232,514.048767 196.259232,502.552765 
	C217.044159,502.552765 237.468002,502.552765 257.911316,502.552765 
	C257.911316,495.534393 257.911316,488.822083 257.911316,482.270721 
	C229.180862,482.270721 200.789932,482.270721 172.510483,482.270721 
	C172.510483,526.022888 172.510483,569.412231 172.510483,612.738281 
	C201.559113,612.738281 230.267487,612.738281 259.553894,612.738281 
	C256.515106,606.321716 253.696411,600.369873 250.493561,593.723938 
M990.840088,579.667664 
	C974.694946,546.516418 958.549805,513.365173 941.938232,479.256226 
	C920.092102,524.454590 898.743469,568.623779 877.102539,613.397583 
	C884.830200,613.397583 891.633240,613.268921 898.427368,613.458740 
	C901.284302,613.538513 902.858704,612.747620 904.063293,609.975098 
	C907.892883,601.160461 912.062317,592.493530 916.098572,583.768677 
	C924.560425,565.477417 933.021118,547.185608 941.765015,528.283020 
	C942.654663,529.948364 943.303345,531.031372 943.831543,532.170288 
	C955.822937,558.029236 967.771484,583.908142 979.858337,609.722351 
	C980.555603,611.211487 982.313904,613.172424 983.653259,613.232056 
	C991.251648,613.570007 998.872803,613.395630 1007.044006,613.395630 
	C1001.541443,602.036560 996.297485,591.211365 990.840088,579.667664 
M589.386536,613.397827 
	C592.161560,613.397827 594.936646,613.397827 598.353455,613.397827 
	C576.617065,568.565125 555.199280,524.389526 533.302612,479.226288 
	C511.443481,524.408020 490.064606,568.597046 468.390106,613.397095 
	C475.891998,613.397095 482.526459,613.148560 489.129517,613.496460 
	C492.716095,613.685425 494.415802,612.356934 495.832581,609.247986 
	C506.766876,585.253601 517.836975,561.321045 528.884155,537.378174 
	C530.227173,534.467224 531.684692,531.609070 533.351074,528.188965 
	C544.470154,552.275635 555.219482,575.612000 566.023193,598.923157 
	C568.239502,603.705444 569.518433,610.117981 573.313538,612.628296 
	C576.934265,615.023315 583.274780,613.306763 589.386536,613.397827 
M712.599854,481.943695 
	C705.769958,481.932922 698.931580,481.735413 692.116272,482.045563 
	C690.457031,482.121124 688.141602,483.478149 687.384338,484.910370 
	C684.366699,490.617432 681.848694,496.588470 679.139404,502.458893 
	C669.296875,523.785828 659.451843,545.111633 649.161499,567.404358 
	C635.791504,538.382080 622.795593,510.171967 609.935852,482.257263 
	C601.320679,482.257263 593.113831,482.257263 584.285095,482.257263 
	C605.967651,526.978027 627.394714,571.171997 649.147278,616.037292 
	C650.138367,614.113953 650.687378,613.104309 651.187195,612.070862 
	C666.705566,579.979553 682.261292,547.906189 697.710571,515.781616 
	C703.077637,504.621582 708.179077,493.333771 712.599854,481.943695 
M771.792542,481.942352 
	C771.256165,482.433624 770.261963,482.916840 770.253174,483.417419 
	C770.145935,489.516144 770.183533,495.617401 770.183533,502.213501 
	C785.842407,502.213501 800.900513,502.213501 816.236694,502.213501 
	C816.236694,539.324341 816.236694,575.920715 816.236694,612.740723 
	C824.065369,612.740723 831.598999,612.740723 839.584473,612.740723 
	C839.584473,575.737183 839.584473,539.022522 839.584473,502.019287 
	C854.987366,502.019287 869.940491,502.019287 885.008301,502.019287 
	C885.008301,495.186951 885.008301,488.653473 885.008301,481.919373 
	C847.349426,481.919373 810.048035,481.919373 771.792542,481.942352 
M280.284882,500.500793 
	C280.284882,537.925293 280.284882,575.349731 280.284882,612.686279 
	C308.766510,612.686279 336.593750,612.686279 364.922607,612.686279 
	C361.231140,607.284180 357.654175,602.491760 354.582947,597.394653 
	C352.644775,594.177917 350.436584,593.041565 346.626221,593.114197 
	C332.516998,593.383240 318.399567,593.221313 303.779602,593.221313 
	C303.779602,555.949341 303.779602,519.071106 303.779602,482.245819 
	C295.703217,482.245819 288.140808,482.245819 280.284882,482.245819 
	C280.284882,488.221283 280.284882,493.861450 280.284882,500.500793 
M380.968964,567.500000 
	C380.968964,582.597900 380.968964,597.695801 380.968964,612.702271 
	C409.424713,612.702271 437.277252,612.702271 465.742096,612.702271 
	C461.837921,607.013794 458.141144,601.935059 454.799622,596.632385 
	C453.060944,593.873230 450.985443,593.076538 447.822662,593.155273 
	C438.995361,593.375000 430.159058,593.231812 421.326294,593.231873 
	C415.705048,593.231934 410.083801,593.231873 404.173370,593.231873 
	C404.173370,555.827637 404.173370,519.030334 404.173370,482.236908 
	C396.290710,482.236908 388.719757,482.236908 380.968964,482.236908 
	C380.968964,510.537903 380.968964,538.518921 380.968964,567.500000 
M753.003052,488.563446 
	C753.003052,486.450470 753.003052,484.337494 753.003052,482.149841 
	C745.120667,482.149841 737.718079,482.149841 730.306396,482.149841 
	C730.306396,525.880737 730.306396,569.373901 730.306396,612.711426 
	C738.068787,612.711426 745.466370,612.711426 752.811707,612.711426 
	C752.900818,612.070862 752.984436,611.749817 752.984558,611.428772 
	C752.994812,570.803406 752.998901,530.177979 753.003052,488.563446 
M992.444458,470.902405 
	C990.707275,472.447571 988.813232,473.850250 987.258850,475.561462 
	C978.255920,485.472412 976.881104,500.971344 983.868774,512.670898 
	C990.645020,524.016418 1003.916199,529.643738 1016.507507,526.309692 
	C1028.750610,523.067810 1036.376343,515.020386 1038.918213,502.755127 
	C1041.594116,489.844055 1037.410645,478.897919 1026.713623,471.230164 
	C1015.915283,463.489868 1004.420105,463.484100 992.444458,470.902405 
z"/>
<path fill="#030303" opacity="1.000000" stroke="none" 
	d="
M152.406250,581.321960 
	C150.105530,597.614319 139.809616,606.071960 125.538574,610.713196 
	C122.240669,611.785645 118.702263,612.654480 115.267067,612.681885 
	C93.321053,612.857178 71.372955,612.771240 49.210754,612.771240 
	C49.210754,569.233765 49.210754,525.819092 49.210754,481.915161 
	C64.752129,481.915161 80.191109,481.832306 95.628304,481.961761 
	C100.775909,482.004913 105.968788,482.249023 111.055443,482.989136 
	C132.863525,486.162262 144.539093,502.201721 141.028625,523.848267 
	C139.969772,530.377502 137.752304,533.728027 128.176376,543.267456 
	C151.569824,552.226929 153.871979,566.907593 152.406250,581.321960 
M77.543167,555.785034 
	C75.772041,555.785034 74.000916,555.785034 72.133644,555.785034 
	C72.133644,568.308289 72.133644,580.363098 72.133644,592.450806 
	C84.944542,592.450806 97.533035,592.591492 110.113930,592.344788 
	C112.997421,592.288269 115.985741,591.209045 118.698776,590.063049 
	C125.859940,587.038330 129.385529,581.530029 129.192215,573.656494 
	C129.011688,566.303711 125.407715,560.629822 118.110054,558.198120 
	C113.777306,556.754395 109.051506,556.075195 104.468239,555.887634 
	C95.835892,555.534302 87.178818,555.785278 77.543167,555.785034 
M71.908157,511.511047 
	C71.908157,519.912292 71.908157,528.313477 71.908157,536.122742 
	C82.956612,536.122742 93.449562,536.883667 103.775566,535.897156 
	C113.097038,535.006592 118.145538,528.048401 118.058128,519.119690 
	C117.977867,510.922058 112.715240,504.161102 103.764320,503.389191 
	C93.311470,502.487823 82.721313,503.178589 71.908157,503.178589 
	C71.908157,505.570648 71.908157,508.042572 71.908157,511.511047 
z"/>
<path fill="#050505" opacity="1.000000" stroke="none" 
	d="
M250.685638,594.070984 
	C253.696411,600.369873 256.515106,606.321716 259.553894,612.738281 
	C230.267487,612.738281 201.559113,612.738281 172.510483,612.738281 
	C172.510483,569.412231 172.510483,526.022888 172.510483,482.270721 
	C200.789932,482.270721 229.180862,482.270721 257.911316,482.270721 
	C257.911316,488.822083 257.911316,495.534393 257.911316,502.552765 
	C237.468002,502.552765 217.044159,502.552765 196.259232,502.552765 
	C196.259232,514.048767 196.259232,525.251343 196.259232,536.785522 
	C214.020340,536.785522 231.786865,536.785522 249.887604,536.785522 
	C249.887604,543.469604 249.887604,549.832886 249.887604,556.489197 
	C232.023880,556.489197 214.250916,556.489197 196.189072,556.489197 
	C196.189072,568.512268 196.189072,580.250671 196.189072,592.398438 
	C212.715393,592.398438 229.152756,592.361206 245.589371,592.456360 
	C247.226486,592.465820 248.858948,593.282104 250.685638,594.070984 
z"/>
<path fill="#030303" opacity="1.000000" stroke="none" 
	d="
M990.946838,580.026917 
	C996.297485,591.211365 1001.541443,602.036560 1007.044006,613.395630 
	C998.872803,613.395630 991.251648,613.570007 983.653259,613.232056 
	C982.313904,613.172424 980.555603,611.211487 979.858337,609.722351 
	C967.771484,583.908142 955.822937,558.029236 943.831543,532.170288 
	C943.303345,531.031372 942.654663,529.948364 941.765015,528.283020 
	C933.021118,547.185608 924.560425,565.477417 916.098572,583.768677 
	C912.062317,592.493530 907.892883,601.160461 904.063293,609.975098 
	C902.858704,612.747620 901.284302,613.538513 898.427368,613.458740 
	C891.633240,613.268921 884.830200,613.397583 877.102539,613.397583 
	C898.743469,568.623779 920.092102,524.454590 941.938232,479.256226 
	C958.549805,513.365173 974.694946,546.516418 990.946838,580.026917 
z"/>
<path fill="#030303" opacity="1.000000" stroke="none" 
	d="
M588.903076,613.397766 
	C583.274780,613.306763 576.934265,615.023315 573.313538,612.628296 
	C569.518433,610.117981 568.239502,603.705444 566.023193,598.923157 
	C555.219482,575.612000 544.470154,552.275635 533.351074,528.188965 
	C531.684692,531.609070 530.227173,534.467224 528.884155,537.378174 
	C517.836975,561.321045 506.766876,585.253601 495.832581,609.247986 
	C494.415802,612.356934 492.716095,613.685425 489.129517,613.496460 
	C482.526459,613.148560 475.891998,613.397095 468.390106,613.397095 
	C490.064606,568.597046 511.443481,524.408020 533.302612,479.226288 
	C555.199280,524.389526 576.617065,568.565125 598.353455,613.397827 
	C594.936646,613.397827 592.161560,613.397827 588.903076,613.397766 
z"/>
<path fill="#030303" opacity="1.000000" stroke="none" 
	d="
M713.000854,482.023987 
	C708.179077,493.333771 703.077637,504.621582 697.710571,515.781616 
	C682.261292,547.906189 666.705566,579.979553 651.187195,612.070862 
	C650.687378,613.104309 650.138367,614.113953 649.147278,616.037292 
	C627.394714,571.171997 605.967651,526.978027 584.285095,482.257263 
	C593.113831,482.257263 601.320679,482.257263 609.935852,482.257263 
	C622.795593,510.171967 635.791504,538.382080 649.161499,567.404358 
	C659.451843,545.111633 669.296875,523.785828 679.139404,502.458893 
	C681.848694,496.588470 684.366699,490.617432 687.384338,484.910370 
	C688.141602,483.478149 690.457031,482.121124 692.116272,482.045563 
	C698.931580,481.735413 705.769958,481.932922 713.000854,482.023987 
z"/>
<path fill="#020202" opacity="1.000000" stroke="none" 
	d="
M772.269653,481.930847 
	C810.048035,481.919373 847.349426,481.919373 885.008301,481.919373 
	C885.008301,488.653473 885.008301,495.186951 885.008301,502.019287 
	C869.940491,502.019287 854.987366,502.019287 839.584473,502.019287 
	C839.584473,539.022522 839.584473,575.737183 839.584473,612.740723 
	C831.598999,612.740723 824.065369,612.740723 816.236694,612.740723 
	C816.236694,575.920715 816.236694,539.324341 816.236694,502.213501 
	C800.900513,502.213501 785.842407,502.213501 770.183533,502.213501 
	C770.183533,495.617401 770.145935,489.516144 770.253174,483.417419 
	C770.261963,482.916840 771.256165,482.433624 772.269653,481.930847 
z"/>
<path fill="#060606" opacity="1.000000" stroke="none" 
	d="
M280.284882,500.001221 
	C280.284882,493.861450 280.284882,488.221283 280.284882,482.245819 
	C288.140808,482.245819 295.703217,482.245819 303.779602,482.245819 
	C303.779602,519.071106 303.779602,555.949341 303.779602,593.221313 
	C318.399567,593.221313 332.516998,593.383240 346.626221,593.114197 
	C350.436584,593.041565 352.644775,594.177917 354.582947,597.394653 
	C357.654175,602.491760 361.231140,607.284180 364.922607,612.686279 
	C336.593750,612.686279 308.766510,612.686279 280.284882,612.686279 
	C280.284882,575.349731 280.284882,537.925293 280.284882,500.001221 
z"/>
<path fill="#020202" opacity="1.000000" stroke="none" 
	d="
M380.968964,567.000000 
	C380.968964,538.518921 380.968964,510.537903 380.968964,482.236908 
	C388.719757,482.236908 396.290710,482.236908 404.173370,482.236908 
	C404.173370,519.030334 404.173370,555.827637 404.173370,593.231873 
	C410.083801,593.231873 415.705048,593.231934 421.326294,593.231873 
	C430.159058,593.231812 438.995361,593.375000 447.822662,593.155273 
	C450.985443,593.076538 453.060944,593.873230 454.799622,596.632385 
	C458.141144,601.935059 461.837921,607.013794 465.742096,612.702271 
	C437.277252,612.702271 409.424713,612.702271 380.968964,612.702271 
	C380.968964,597.695801 380.968964,582.597900 380.968964,567.000000 
z"/>
<path fill="#020202" opacity="1.000000" stroke="none" 
	d="
M753.003174,489.058044 
	C752.998901,530.177979 752.994812,570.803406 752.984558,611.428772 
	C752.984436,611.749817 752.900818,612.070862 752.811707,612.711426 
	C745.466370,612.711426 738.068787,612.711426 730.306396,612.711426 
	C730.306396,569.373901 730.306396,525.880737 730.306396,482.149841 
	C737.718079,482.149841 745.120667,482.149841 753.003052,482.149841 
	C753.003052,484.337494 753.003052,486.450470 753.003174,489.058044 
z"/>
<path fill="#0C0C0C" opacity="1.000000" stroke="none" 
	d="
M992.736206,470.689056 
	C1004.420105,463.484100 1015.915283,463.489868 1026.713623,471.230164 
	C1037.410645,478.897919 1041.594116,489.844055 1038.918213,502.755127 
	C1036.376343,515.020386 1028.750610,523.067810 1016.507507,526.309692 
	C1003.916199,529.643738 990.645020,524.016418 983.868774,512.670898 
	C976.881104,500.971344 978.255920,485.472412 987.258850,475.561462 
	C988.813232,473.850250 990.707275,472.447571 992.736206,470.689056 
M994.614746,515.956055 
	C995.564026,516.628784 996.476807,517.361511 997.468140,517.965088 
	C1007.163940,523.868469 1019.969788,521.739441 1027.340576,513.019775 
	C1035.209106,503.711334 1035.272095,489.081909 1027.483276,479.906097 
	C1019.978882,471.065277 1007.473206,468.889038 997.642578,474.713074 
	C983.445251,483.124115 981.706482,502.933289 994.614746,515.956055 
z"/>
<path fill="#FDFDFD" opacity="1.000000" stroke="none" 
	d="
M78.037598,555.785034 
	C87.178818,555.785278 95.835892,555.534302 104.468239,555.887634 
	C109.051506,556.075195 113.777306,556.754395 118.110054,558.198120 
	C125.407715,560.629822 129.011688,566.303711 129.192215,573.656494 
	C129.385529,581.530029 125.859940,587.038330 118.698776,590.063049 
	C115.985741,591.209045 112.997421,592.288269 110.113930,592.344788 
	C97.533035,592.591492 84.944542,592.450806 72.133644,592.450806 
	C72.133644,580.363098 72.133644,568.308289 72.133644,555.785034 
	C74.000916,555.785034 75.772041,555.785034 78.037598,555.785034 
z"/>
<path fill="#FDFDFD" opacity="1.000000" stroke="none" 
	d="
M71.908157,511.012756 
	C71.908157,508.042572 71.908157,505.570648 71.908157,503.178589 
	C82.721313,503.178589 93.311470,502.487823 103.764320,503.389191 
	C112.715240,504.161102 117.977867,510.922058 118.058128,519.119690 
	C118.145538,528.048401 113.097038,535.006592 103.775566,535.897156 
	C93.449562,536.883667 82.956612,536.122742 71.908157,536.122742 
	C71.908157,528.313477 71.908157,519.912292 71.908157,511.012756 
z"/>
<path fill="#F8F8F8" opacity="1.000000" stroke="none" 
	d="
M994.339233,515.720825 
	C981.706482,502.933289 983.445251,483.124115 997.642578,474.713074 
	C1007.473206,468.889038 1019.978882,471.065277 1027.483276,479.906097 
	C1035.272095,489.081909 1035.209106,503.711334 1027.340576,513.019775 
	C1019.969788,521.739441 1007.163940,523.868469 997.468140,517.965088 
	C996.476807,517.361511 995.564026,516.628784 994.339233,515.720825 
M1006.423035,500.034668 
	C1011.852966,499.131470 1011.968018,503.920013 1013.212036,506.893433 
	C1015.016907,511.207336 1017.381470,513.475464 1022.648743,511.731415 
	C1020.476135,507.498016 1018.309082,503.275421 1016.111084,498.992493 
	C1017.260681,497.958862 1018.495850,497.092529 1019.424011,495.971893 
	C1023.749268,490.749268 1021.129395,482.000244 1014.491211,480.917511 
	C1009.550659,480.111694 1004.373169,480.758820 999.402832,480.758820 
	C999.402832,491.424622 999.402832,501.691040 999.402832,512.243408 
	C1001.452637,512.152893 1003.195679,512.075989 1004.873840,512.001892 
	C1005.123169,507.812561 1005.348206,504.031403 1006.423035,500.034668 
z"/>
<path fill="#0C0C0C" opacity="1.000000" stroke="none" 
	d="
M1005.998169,500.142456 
	C1005.348206,504.031403 1005.123169,507.812561 1004.873840,512.001892 
	C1003.195679,512.075989 1001.452637,512.152893 999.402832,512.243408 
	C999.402832,501.691040 999.402832,491.424622 999.402832,480.758820 
	C1004.373169,480.758820 1009.550659,480.111694 1014.491211,480.917511 
	C1021.129395,482.000244 1023.749268,490.749268 1019.424011,495.971893 
	C1018.495850,497.092529 1017.260681,497.958862 1016.111084,498.992493 
	C1018.309082,503.275421 1020.476135,507.498016 1022.648743,511.731415 
	C1017.381470,513.475464 1015.016907,511.207336 1013.212036,506.893433 
	C1011.968018,503.920013 1011.852966,499.131470 1005.998169,500.142456 
M1005.132751,491.420471 
	C1004.319580,496.299072 1007.841675,495.293732 1010.431274,495.156525 
	C1014.250671,494.954102 1015.573303,492.514679 1015.044373,489.008636 
	C1014.482422,485.282806 1011.698242,484.345673 1005.131592,485.659576 
	C1005.131592,487.231689 1005.131592,488.866943 1005.132751,491.420471 
z"/>
<path fill="#F8F8F8" opacity="1.000000" stroke="none" 
	d="
M1005.132202,490.961334 
	C1005.131592,488.866943 1005.131592,487.231689 1005.131592,485.659576 
	C1011.698242,484.345673 1014.482422,485.282806 1015.044373,489.008636 
	C1015.573303,492.514679 1014.250671,494.954102 1010.431274,495.156525 
	C1007.841675,495.293732 1004.319580,496.299072 1005.132202,490.961334 
z"/>
</svg>